# xmcd CD database file
#
# Track frame offsets:
#	150
#	21407
#	40322
#	58667
#	70960
#	93300
#	108387
#	123837
#	143925
#	164955
#	185832
#	203272
#	229962
#	249212
#	270087
#
# Disc length: 3914 seconds
#
# Revision: 2
# Processed by: cddbd v1.4PL0 Copyright (c) Steve Scherf et al.
# Submitted via: CDex 1.40Beta9
#
DISCID=d40f480f
DTITLE=Renacer - Musica Latinoamericna
DYEAR=1900
DGENRE=Darkwave
TTITLE0=Coando Calienta El Sol
TTITLE1=Cielito Lindo
TTITLE2=Solo Le Pido A Dios
TTITLE3=Negro Nicolas
TTITLE4=Gracias A La Vida
TTITLE5=Cucurrucucu Paloma
TTITLE6=Tu Recuerdo
TTITLE7=Y Nada Mas
TTITLE8=A Mi Manera
TTITLE9=Ansiedad
TTITLE10=Sin Ti
TTITLE11=Estoy Enamorado
TTITLE12=Panorama
TTITLE13=Negro Jose
TTITLE14=Guantamera
EXTD=ID3G: 50
EXTT0=
EXTT1=
EXTT2=
EXTT3=
EXTT4=
EXTT5=
EXTT6=
EXTT7=
EXTT8=
EXTT9=
EXTT10=
EXTT11=
EXTT12=
EXTT13=
EXTT14=
PLAYORDER=
